<svg xmlns="http://www.w3.org/2000/svg" width="374" height="136" viewBox="0 0 374 136" font-family="ui-monospace, SFMono-Regular, Menlo, Consolas, monospace"><rect width="100%" height="100%" fill="#ffffff"/><defs><clipPath id="box-clip-0"><rect x="32.0" y="52.0" width="309.8" height="26.0" rx="4"/></clipPath><marker id="arrow-inherit-added" viewBox="0 0 12 12" refX="11" refY="6" markerWidth="12" markerHeight="12" orient="auto"><path d="M1,1 L11,6 L1,11 z" fill="#ffffff" stroke="#1a7f37" stroke-width="1.2"/></marker><marker id="diamond-compose-added" viewBox="0 0 12 12" refX="1" refY="6" markerWidth="12" markerHeight="12" orient="auto"><path d="M1,6 L6,1 L11,6 L6,11 z" fill="#1a7f37"/></marker><marker id="arrow-inherit-removed" viewBox="0 0 12 12" refX="11" refY="6" markerWidth="12" markerHeight="12" orient="auto"><path d="M1,1 L11,6 L1,11 z" fill="#ffffff" stroke="#cf222e" stroke-width="1.2"/></marker><marker id="diamond-compose-removed" viewBox="0 0 12 12" refX="1" refY="6" markerWidth="12" markerHeight="12" orient="auto"><path d="M1,6 L6,1 L11,6 L6,11 z" fill="#cf222e"/></marker></defs><rect x="16.0" y="16.0" width="341.8" height="104.0" rx="6" fill="none" stroke="#d0d7de" stroke-dasharray="4,3"/><text x="24.0" y="32.0" font-family="ui-monospace, SFMono-Regular, Menlo, Consolas, monospace" font-size="12" fill="#57606a">design_diff.domain.model</text><rect x="32.0" y="52.0" width="309.8" height="52.0" rx="4" fill="#ffffff" stroke="#1a7f37" stroke-width="1.5"/><rect x="32.0" y="52.0" width="309.8" height="26.0" fill="#d1f8d9" clip-path="url(#box-clip-0)"/><line x1="32.0" y1="78.0" x2="341.8" y2="78.0" stroke="#1a7f37" stroke-width="1"/><text x="186.9" y="69.0" font-family="ui-monospace, SFMono-Regular, Menlo, Consolas, monospace" font-size="13" font-weight="bold" text-anchor="middle" fill="#1f2328">[+] _VerifySvgActionIntegrationMarker</text><rect x="33.0" y="78.0" width="307.8" height="18.0" fill="#e6ffec"/><text x="42.0" y="90.6" font-family="ui-monospace, SFMono-Regular, Menlo, Consolas, monospace" font-size="12" font-weight="bold" text-anchor="middle" fill="#1a7f37">+</text><text x="56.0" y="90.6" font-family="ui-monospace, SFMono-Regular, Menlo, Consolas, monospace" font-size="12" fill="#1f2328">+note: str</text></svg>